<svg width="1920" height="1080" viewBox="0 0 1920 1080" fill="none" xmlns="http://www.w3.org/2000/svg">
<rect width="1920" height="1080" fill="#1D1E22"/>
<rect x="407" y="74" width="1106" height="68" fill="white" stroke="black" stroke-width="2"/>
<path d="M439.594 90.0625V124H435.328V94.4688H435.141L426.891 99.9531V95.6875L435.328 90.0625H439.594ZM459.703 124.469C453.562 124.469 448.922 120.672 448.688 115.469H452.766C453.094 118.516 456.047 120.766 459.703 120.766C464.109 120.766 467.297 117.531 467.297 113.266C467.297 108.859 463.969 105.625 459.422 105.578C456.562 105.531 454.359 106.422 453.094 108.625H449.016L451.406 90.0625H469.781V93.8125H454.922L453.656 103.75H453.984C455.484 102.578 457.781 101.781 460.172 101.781C466.641 101.781 471.422 106.562 471.422 113.172C471.422 119.734 466.453 124.469 459.703 124.469ZM510.328 86.125V110.828H506.625V104.266H496.875V107.828H477.75V89.3125H496.875V92.9219H506.625V86.125H510.328ZM481.406 92.3125V104.828H493.266V92.3125H481.406ZM496.5 112.047C505.172 112.047 510.469 114.906 510.469 119.922C510.469 124.891 505.172 127.703 496.5 127.703C487.828 127.703 482.531 124.891 482.531 119.922C482.531 114.906 487.828 112.047 496.5 112.047ZM496.5 114.906C490.125 114.953 486.141 116.781 486.188 119.922C486.141 122.922 490.125 124.797 496.5 124.797C502.875 124.797 506.812 122.922 506.812 119.922C506.812 116.781 502.875 114.953 496.5 114.906ZM496.875 101.172H506.625V95.9688H496.875V101.172ZM536.25 88.8438C544.969 88.8438 551.484 93.3906 551.484 100.281C551.484 107.219 544.969 111.766 536.25 111.719C527.531 111.766 521.016 107.219 521.016 100.281C521.016 93.3906 527.531 88.8438 536.25 88.8438ZM536.25 91.8438C529.547 91.7969 524.484 95.3125 524.531 100.281C524.484 105.344 529.547 108.719 536.25 108.719C542.906 108.719 547.922 105.344 547.922 100.281C547.922 95.3125 542.906 91.7969 536.25 91.8438ZM555.422 119.172V122.266H517.266V119.172H555.422ZM596.906 119.547V122.641H558.75V119.547H575.906V111.672H563.531V98.8281H588.469V92.2656H563.438V89.2188H592.078V101.828H567.188V108.625H593.062V111.672H579.516V119.547H596.906ZM633.328 89.9219V109.094H614.062V89.9219H633.328ZM617.672 92.9219V106.141H629.766V92.9219H617.672ZM644.859 86.125V98.8281H651.141V101.922H644.859V116.688H641.203V86.125H644.859ZM646.781 123.812V126.906H618.797V113.781H622.406V123.812H646.781ZM691.781 103.656V106.609H653.766V103.656H691.781ZM687.234 97.2344V100.234H658.828V87.5781H686.812V90.5312H662.531V97.2344H687.234ZM686.859 110.359V120.016H662.109V124.328H688.125V127.328H658.453V117.25H683.25V113.219H658.359V110.359H686.859ZM706.453 89.3594C712.125 89.4062 716.203 94.2578 716.812 102.062H726.141V86.125H729.797V127.891H726.141V105.109H716.859C716.414 113.266 712.266 118.375 706.453 118.375C700.312 118.375 696 112.75 696 103.891C696 95.0312 700.312 89.4062 706.453 89.3594ZM706.453 92.6406C702.328 92.6875 699.516 97.0938 699.516 103.891C699.516 110.688 702.328 115.094 706.453 115.094C710.531 115.094 713.391 110.688 713.391 103.891C713.391 97.0938 710.531 92.6875 706.453 92.6406ZM757.781 92.0312C757.734 97.6094 765.188 102.344 772.453 103.422L771.094 106.328C764.578 105.227 758.25 101.758 755.719 96.7188C753.188 101.758 746.836 105.227 740.438 106.328L738.984 103.422C746.203 102.344 753.656 97.6094 753.656 92.0312V91.75H740.297V88.75H771.094V91.75H757.781V92.0312ZM774.703 109.891V112.938H757.453V127.797H753.844V112.938H736.734V109.891H774.703ZM811.641 90.3438V94.5156C811.594 99.625 811.594 105.344 810.094 113.734L806.344 113.312C807.938 105.344 807.938 99.4844 807.938 94.5156V93.3906H782.25V90.3438H811.641ZM816.188 118.844V121.891H778.219V118.844H793.125V103.938H796.734V118.844H816.188ZM867.328 86.125V127.797H863.719V106.234H857.719V125.641H854.25V87.0625H857.719V103.094H863.719V86.125H867.328ZM837.516 91.2344V113.734C841.664 113.688 846.07 113.406 851.156 112.375L851.625 115.656C845.812 116.688 841.031 117.016 836.438 117.016H833.859V91.2344H837.516ZM905.484 86.125V103.094H912.234V106.188H905.484V127.797H901.828V86.125H905.484ZM894.703 90.625C894.703 102.438 889.172 113.172 875.578 119.875L873.516 116.969C884.297 111.602 890.156 103.586 891 93.7188H875.438V90.625H894.703ZM948.141 91.3281C948.094 96.4375 955.125 100.609 962.484 101.641L961.031 104.547C954.305 103.586 948.023 100.211 945.75 95.3125C943.5 100.211 937.242 103.586 930.469 104.547L929.109 101.641C936.469 100.609 943.359 96.4375 943.359 91.3281V91.2344H930.234V88.2344H961.359V91.2344H948.141V91.3281ZM964.875 107.594V110.641H947.906V119.172H944.25V110.641H926.719V107.594H964.875ZM960.609 123.812V126.906H931.594V115H935.297V123.812H960.609ZM1014.7 86.1719V116.641H1011.05V86.1719H1014.7ZM1016.02 123.812V126.906H987.797V113.547H991.453V123.812H1016.02ZM992.203 89.0781C998.438 89.0781 1003.12 93.2969 1003.12 99.2969C1003.12 105.391 998.438 109.562 992.203 109.562C985.969 109.562 981.281 105.391 981.281 99.2969C981.281 93.2969 985.969 89.0781 992.203 89.0781ZM992.203 92.3125C987.984 92.3125 984.844 95.2188 984.891 99.2969C984.844 103.469 987.984 106.328 992.203 106.328C996.328 106.328 999.516 103.469 999.516 99.2969C999.516 95.2188 996.328 92.3125 992.203 92.3125ZM1059.75 103.75V106.75H1042.55V110.875H1054.88V120.203H1030.12V124.422H1056.14V127.328H1026.47V117.438H1051.27V113.734H1026.38V110.875H1038.89V106.75H1021.78V103.75H1059.75ZM1054.83 87.5312V100.234H1026.7V87.5312H1054.83ZM1030.36 90.4844V97.2812H1051.17V90.4844H1030.36ZM1101.28 103.656V106.609H1063.27V103.656H1101.28ZM1096.73 97.2344V100.234H1068.33V87.5781H1096.31V90.5312H1072.03V97.2344H1096.73ZM1096.36 110.359V120.016H1071.61V124.328H1097.62V127.328H1067.95V117.25H1092.75V113.219H1067.86V110.359H1096.36ZM1127.86 90.7656V92.9219C1127.81 96.2031 1127.81 101.734 1126.64 109.469L1122.94 109.141C1124.06 102.156 1124.16 97.0938 1124.16 93.7656H1106.67V90.7656H1127.86ZM1116.94 102.672V115.328C1121.55 115.164 1126.29 114.859 1130.62 114.344L1130.81 117.109C1122.05 118.469 1112.25 118.656 1104.8 118.609L1104.33 115.562C1107.07 115.539 1110.12 115.516 1113.33 115.422V102.672H1116.94ZM1136.91 86.125V103.562H1143.66V106.75H1136.91V127.797H1133.25V86.125H1136.91ZM1192.69 86.1719V116.641H1189.03V86.1719H1192.69ZM1194 123.812V126.906H1165.78V113.547H1169.44V123.812H1194ZM1170.19 89.0781C1176.42 89.0781 1181.11 93.2969 1181.11 99.2969C1181.11 105.391 1176.42 109.562 1170.19 109.562C1163.95 109.562 1159.27 105.391 1159.27 99.2969C1159.27 93.2969 1163.95 89.0781 1170.19 89.0781ZM1170.19 92.3125C1165.97 92.3125 1162.83 95.2188 1162.88 99.2969C1162.83 103.469 1165.97 106.328 1170.19 106.328C1174.31 106.328 1177.5 103.469 1177.5 99.2969C1177.5 95.2188 1174.31 92.3125 1170.19 92.3125ZM1213.69 92.875C1213.69 98.5469 1218 103.75 1224.05 105.812L1222.03 108.719C1217.41 107.031 1213.78 103.586 1211.95 99.25C1210.17 104.148 1206.47 108.016 1201.59 109.891L1199.62 106.938C1205.86 104.594 1210.03 99.0156 1210.08 92.5938V88.2812H1213.69V92.875ZM1232.34 86.125V97H1238.62V100.094H1232.34V111.484H1228.69V86.125H1232.34ZM1218.98 112.562C1227.56 112.562 1232.72 115.328 1232.72 120.109C1232.72 124.984 1227.56 127.703 1218.98 127.703C1210.41 127.703 1205.16 124.984 1205.16 120.109C1205.16 115.328 1210.41 112.562 1218.98 112.562ZM1218.98 115.516C1212.7 115.516 1208.81 117.25 1208.86 120.109C1208.81 123.062 1212.7 124.75 1218.98 124.797C1225.31 124.75 1229.16 123.062 1229.16 120.109C1229.16 117.25 1225.31 115.516 1218.98 115.516ZM1255.45 95.2188C1255.45 100.375 1259.67 105.156 1265.81 106.984L1264.03 109.891C1259.25 108.391 1255.52 105.18 1253.72 101.078C1251.89 105.602 1248.05 109.047 1243.17 110.688L1241.3 107.781C1247.53 105.859 1251.84 100.844 1251.84 95.2188V94.2812H1242.42V91.3281H1251.84V85.9844H1255.55V91.3281H1264.88V94.2812H1255.45V95.2188ZM1273.83 86.125V97.2812H1280.11V100.422H1273.83V111.578H1270.17V86.125H1273.83ZM1273.83 113.734V127.891H1270.17V116.781H1246.55V113.734H1273.83ZM1296.38 89.1719C1302.94 89.1719 1307.58 93.1562 1307.58 98.9688C1307.58 104.781 1302.94 108.766 1296.38 108.766C1289.81 108.766 1285.08 104.781 1285.12 98.9688C1285.08 93.1562 1289.81 89.1719 1296.38 89.1719ZM1296.38 92.4062C1291.92 92.4062 1288.69 95.0781 1288.73 98.9688C1288.69 102.859 1291.92 105.531 1296.38 105.531C1300.78 105.531 1303.97 102.859 1303.97 98.9688C1303.97 95.0781 1300.78 92.4062 1296.38 92.4062ZM1316.91 86.125V127.891H1313.25V86.125H1316.91ZM1282.97 115.562C1290.66 115.562 1301.25 115.516 1310.48 114.156L1310.77 116.875C1301.25 118.656 1290.98 118.703 1283.48 118.703L1282.97 115.562ZM1357.31 88.9844V106.797H1338.05V88.9844H1357.31ZM1341.66 91.9844V103.797H1353.75V91.9844H1341.66ZM1368.84 86.125V96.1562H1375.12V99.25H1368.84V109.938H1365.19V86.125H1368.84ZM1369.59 112.375V115.375H1357.78C1358.18 119.828 1364.39 123.719 1371.19 124.797L1369.83 127.656C1363.73 126.648 1358.2 123.625 1355.81 119.453C1353.45 123.648 1347.96 126.625 1341.89 127.609L1340.48 124.797C1347.38 123.719 1353.47 119.898 1353.94 115.375H1342.12V112.375H1369.59ZM1393.12 93.8594C1393.12 98.0312 1397.3 101.641 1403.16 102.906L1401.56 105.812C1396.8 104.617 1393.1 102.039 1391.34 98.5938C1389.59 102.344 1385.81 105.133 1380.89 106.375L1379.3 103.562C1385.16 102.203 1389.33 98.3125 1389.33 93.8594V93.7188H1380.19V90.7656H1389.42V86.2656H1393.08V90.7656H1402.22V93.7188H1393.12V93.8594ZM1412.25 86.1719V127.844H1408.5V118.188H1398.89V115.234H1408.5V86.1719H1412.25ZM1377.56 109.094C1385.48 109.141 1396.03 109.047 1405.22 107.734L1405.45 110.547C1401.33 111.25 1397.09 111.672 1392.94 111.906V126.531H1389.23V112.094C1385.25 112.234 1381.43 112.258 1378.08 112.234L1377.56 109.094ZM1434.56 93.0156C1434.56 96.9531 1438.97 100.375 1444.92 101.547L1443.42 104.406C1438.55 103.352 1434.66 100.914 1432.78 97.6094C1430.95 101.219 1427.02 103.914 1421.91 105.062L1420.36 102.203C1426.5 100.938 1430.86 97.2344 1430.86 93.0156V92.2656H1421.77V89.2188H1443.84V92.2656H1434.56V93.0156ZM1453.73 86.1719V127.844H1449.98V117.719H1440.38V114.859H1449.98V86.1719H1453.73ZM1419.05 108.391C1426.88 108.438 1437.52 108.344 1446.7 107.031L1446.94 109.797C1442.84 110.5 1438.57 110.922 1434.42 111.156V126.531H1430.72V111.344C1426.71 111.531 1422.91 111.555 1419.56 111.578L1419.05 108.391ZM1465.12 124.281C1463.48 124.281 1462.08 122.922 1462.12 121.234C1462.08 119.594 1463.48 118.234 1465.12 118.234C1466.77 118.234 1468.12 119.594 1468.12 121.234C1468.12 122.922 1466.77 124.281 1465.12 124.281ZM1477.31 124.281C1475.67 124.281 1474.27 122.922 1474.31 121.234C1474.27 119.594 1475.67 118.234 1477.31 118.234C1478.95 118.234 1480.31 119.594 1480.31 121.234C1480.31 122.922 1478.95 124.281 1477.31 124.281ZM1489.5 124.281C1487.86 124.281 1486.45 122.922 1486.5 121.234C1486.45 119.594 1487.86 118.234 1489.5 118.234C1491.14 118.234 1492.5 119.594 1492.5 121.234C1492.5 122.922 1491.14 124.281 1489.5 124.281Z" fill="black"/>
</svg>
