<svg width="1920" height="1080" viewBox="0 0 1920 1080" fill="none" xmlns="http://www.w3.org/2000/svg">
<rect width="1920" height="1080" fill="#1D1E22"/>
<rect x="847" y="506" width="226" height="68" fill="white" stroke="black" stroke-width="2"/>
<path d="M881.75 525.344V528.344H860.844V525.344H869.516V519.391H873.172V525.344H881.75ZM871.297 531.156C876.547 531.156 880.297 535.094 880.344 540.625C880.297 546.203 876.547 550.188 871.297 550.188C866.094 550.188 862.344 546.203 862.344 540.625C862.344 535.094 866.094 531.156 871.297 531.156ZM871.297 534.25C868.016 534.297 865.625 536.969 865.625 540.625C865.625 544.328 868.016 547 871.297 546.953C874.625 547 877.062 544.328 877.062 540.625C877.062 536.969 874.625 534.297 871.297 534.25ZM896.422 518.125V559.797H892.906V538.75H887.375V557.734H883.906V519.156H887.375V535.703H892.906V518.125H896.422ZM936.969 518.125V539.453H933.266V535.094H922.156V532.188H933.266V527.172H922.766C920.141 533.758 913.672 538.188 904.438 540.391L903.125 537.344C913.344 534.977 919.297 529.984 920 523.281H905.234V520.234H924.031C924.031 521.617 923.891 522.953 923.656 524.219H933.266V518.125H936.969ZM936.969 541.328V551.5H913.719V556.375H938.375V559.422H910.062V548.688H933.266V544.328H909.969V541.328H936.969ZM963.125 544.328C971.703 544.328 976.859 547.141 976.859 552.016C976.859 556.938 971.703 559.75 963.125 559.797C954.547 559.75 949.297 556.938 949.297 552.016C949.297 547.141 954.547 544.328 963.125 544.328ZM963.125 547.234C956.844 547.281 952.953 549.016 953 552.016C952.953 555.016 956.844 556.797 963.125 556.797C969.453 556.797 973.297 555.016 973.297 552.016C973.297 549.016 969.453 547.281 963.125 547.234ZM976.484 518.125V528.625H982.766V531.766H976.484V543.203H972.828V518.125H976.484ZM949.297 520.75V527.125H961.438V520.75H965.094V539.969H945.688V520.75H949.297ZM949.297 536.969H961.438V530.031H949.297V536.969ZM991.156 520.281V526.75H1002.78V520.281H1006.39V528.391H1016.23V518.125H1019.94V540.906H1016.23V531.484H1006.39V539.359H987.5V520.281H991.156ZM991.156 536.359H1002.78V529.656H991.156V536.359ZM996.781 542.922V548.031H1016.23V542.922H1019.89V559.234H993.078V542.922H996.781ZM996.781 556.188H1016.23V550.984H996.781V556.188ZM1031.28 556.281C1029.64 556.281 1028.23 554.922 1028.28 553.234C1028.23 551.594 1029.64 550.234 1031.28 550.234C1032.92 550.234 1034.28 551.594 1034.28 553.234C1034.28 554.922 1032.92 556.281 1031.28 556.281ZM1043.47 556.281C1041.83 556.281 1040.42 554.922 1040.47 553.234C1040.42 551.594 1041.83 550.234 1043.47 550.234C1045.11 550.234 1046.47 551.594 1046.47 553.234C1046.47 554.922 1045.11 556.281 1043.47 556.281ZM1055.66 556.281C1054.02 556.281 1052.61 554.922 1052.66 553.234C1052.61 551.594 1054.02 550.234 1055.66 550.234C1057.3 550.234 1058.66 551.594 1058.66 553.234C1058.66 554.922 1057.3 556.281 1055.66 556.281Z" fill="black"/>
</svg>
